<svg xmlns="http://www.w3.org/2000/svg" width="784" height="2032" viewBox="0 0 784 2032">
  <!-- 목록 캡처 표본. 3열 × 6행 = 18칸이 눈으로 보인다. barunson 캡처 배치를 그대로 옮겼다.
       바깥에서 아무것도 받지 않는다 — 도형과 글자뿐이라 네트워크 0회이고 브라우저도 쓰지 않는다. -->
  <rect width="784" height="2032" fill="#ffffff"/>
  <g fill="#dddddd" stroke="#999999">
    <rect x="16" y="16" width="240" height="320"/>
    <rect x="272" y="16" width="240" height="320"/>
    <rect x="528" y="16" width="240" height="320"/>
    <rect x="16" y="352" width="240" height="320"/>
    <rect x="272" y="352" width="240" height="320"/>
    <rect x="528" y="352" width="240" height="320"/>
    <rect x="16" y="688" width="240" height="320"/>
    <rect x="272" y="688" width="240" height="320"/>
    <rect x="528" y="688" width="240" height="320"/>
    <rect x="16" y="1024" width="240" height="320"/>
    <rect x="272" y="1024" width="240" height="320"/>
    <rect x="528" y="1024" width="240" height="320"/>
    <rect x="16" y="1360" width="240" height="320"/>
    <rect x="272" y="1360" width="240" height="320"/>
    <rect x="528" y="1360" width="240" height="320"/>
    <rect x="16" y="1696" width="240" height="320"/>
    <rect x="272" y="1696" width="240" height="320"/>
    <rect x="528" y="1696" width="240" height="320"/>
  </g>
  <g font-family="sans-serif" font-size="18" fill="#333333" text-anchor="middle">
    <text x="136" y="186">1101</text><text x="392" y="186">1102</text><text x="648" y="186">1103</text>
    <text x="136" y="522">1104</text><text x="392" y="522">1105</text><text x="648" y="522">1106</text>
    <text x="136" y="858">1107</text><text x="392" y="858">1108</text><text x="648" y="858">1109</text>
    <text x="136" y="1194">1110</text><text x="392" y="1194">1111</text><text x="648" y="1194">1112</text>
    <text x="136" y="1530">1113</text><text x="392" y="1530">1114</text><text x="648" y="1530">1115</text>
    <text x="136" y="1866">1116</text><text x="392" y="1866">1117</text><text x="648" y="1866">1118</text>
  </g>
</svg>
